<svg xmlns="http://www.w3.org/2000/svg" viewBox="0 0 64 48" role="img" aria-labelledby="title">
  <title>China</title>
  <defs>
    <clipPath id="clip">
      <rect x="2" y="2" width="60" height="44" rx="12" ry="12"/>
    </clipPath>
    <linearGradient id="shine" x1="0" y1="0" x2="0" y2="1">
      <stop offset="0" stop-color="#ffffff" stop-opacity="0.24"/>
      <stop offset="0.55" stop-color="#ffffff" stop-opacity="0"/>
    </linearGradient>
  </defs>
  <g clip-path="url(#clip)">
    <rect width="64" height="48" fill="#de2910"/>
    <polygon points="14,8 15.9,13.8 22,13.8 17,17.4 18.9,23.2 14,19.6 9.1,23.2 11,17.4 6,13.8 12.1,13.8" fill="#ffde00"/>
    <polygon points="25,8.2 25.8,10.7 28.4,10.7 26.3,12.2 27.1,14.7 25,13.2 22.9,14.7 23.7,12.2 21.6,10.7 24.2,10.7" fill="#ffde00" transform="rotate(20 25 11.5)"/>
    <polygon points="29,14 29.8,16.5 32.4,16.5 30.3,18 31.1,20.5 29,19 26.9,20.5 27.7,18 25.6,16.5 28.2,16.5" fill="#ffde00" transform="rotate(40 29 17.3)"/>
    <polygon points="28,22 28.8,24.5 31.4,24.5 29.3,26 30.1,28.5 28,27 25.9,28.5 26.7,26 24.6,24.5 27.2,24.5" fill="#ffde00" transform="rotate(15 28 25.3)"/>
    <polygon points="22,27 22.8,29.5 25.4,29.5 23.3,31 24.1,33.5 22,32 19.9,33.5 20.7,31 18.6,29.5 21.2,29.5" fill="#ffde00" transform="rotate(-10 22 30.3)"/>
    <rect width="64" height="24" fill="url(#shine)"/>
  </g>
  <rect x="2" y="2" width="60" height="44" rx="12" ry="12" fill="none" stroke="#ffffff" stroke-opacity="0.2" stroke-width="1.5"/>
</svg>
