<svg xmlns="http://www.w3.org/2000/svg" viewBox="0 0 64 48" role="img" aria-labelledby="title">
  <title>United States</title>
  <defs>
    <clipPath id="clip">
      <rect x="2" y="2" width="60" height="44" rx="12" ry="12"/>
    </clipPath>
    <linearGradient id="shine" x1="0" y1="0" x2="0" y2="1">
      <stop offset="0" stop-color="#ffffff" stop-opacity="0.24"/>
      <stop offset="0.55" stop-color="#ffffff" stop-opacity="0"/>
    </linearGradient>
  </defs>
  <g clip-path="url(#clip)">
    <rect width="64" height="48" fill="#ffffff"/>
    <g fill="#c53845">
      <rect y="0" width="64" height="4"/>
      <rect y="8" width="64" height="4"/>
      <rect y="16" width="64" height="4"/>
      <rect y="24" width="64" height="4"/>
      <rect y="32" width="64" height="4"/>
      <rect y="40" width="64" height="4"/>
    </g>
    <rect width="28" height="22" fill="#27408f"/>
    <g fill="#ffffff">
      <circle cx="5" cy="5" r="1.1"/><circle cx="11" cy="5" r="1.1"/><circle cx="17" cy="5" r="1.1"/><circle cx="23" cy="5" r="1.1"/>
      <circle cx="8" cy="9" r="1.1"/><circle cx="14" cy="9" r="1.1"/><circle cx="20" cy="9" r="1.1"/>
      <circle cx="5" cy="13" r="1.1"/><circle cx="11" cy="13" r="1.1"/><circle cx="17" cy="13" r="1.1"/><circle cx="23" cy="13" r="1.1"/>
      <circle cx="8" cy="17" r="1.1"/><circle cx="14" cy="17" r="1.1"/><circle cx="20" cy="17" r="1.1"/>
    </g>
    <rect width="64" height="24" fill="url(#shine)"/>
  </g>
  <rect x="2" y="2" width="60" height="44" rx="12" ry="12" fill="none" stroke="#ffffff" stroke-opacity="0.2" stroke-width="1.5"/>
</svg>
